<mxfile host="app.diagrams.net" modified="2024-06-04T13:55:09.447Z" agent="Mozilla/5.0 (Windows NT 10.0; Win64; x64) AppleWebKit/537.36 (KHTML, like Gecko) Chrome/116.0.0.0 Safari/537.36" version="24.4.13" etag="DG3-4GTQ8FFuEx7Pz_cR" type="github">
  <diagram name="第 1 页" id="PV27Up4zPWP2OW_3u0Kh">
    <mxGraphModel>
      <root>
        <mxCell id="0" />
        <mxCell id="1" parent="0" />
      </root>
    </mxGraphModel>
  </diagram>
</mxfile>
